<?xml version="1.0" standalone="no"?><!DOCTYPE svg PUBLIC "-//W3C//DTD SVG 1.1//EN" "http://www.w3.org/Graphics/SVG/1.1/DTD/svg11.dtd"><svg t="1514438782966" class="icon" style="" viewBox="0 0 1024 1024" version="1.1" xmlns="http://www.w3.org/2000/svg" p-id="8425" xmlns:xlink="http://www.w3.org/1999/xlink" width="32" height="32"><defs><style type="text/css"></style></defs><path d="M340.736 122.24c17.152 0 31.808 6.016 44.032 17.856C396.864 152 402.88 166.464 402.88 183.68l0 247.424c0 17.152-6.016 31.872-18.112 44.032C372.544 487.36 357.888 493.44 340.736 493.44L93.824 493.44c-17.216 0-31.616-6.08-43.456-18.304-11.84-12.096-17.792-26.88-17.792-44.032L32.576 183.68c0-17.216 5.952-31.744 17.792-43.584S76.608 122.24 93.824 122.24L340.736 122.24zM340.736 617.152c17.152 0 31.808 6.016 44.032 17.856 12.096 11.904 18.112 26.304 18.112 43.52l0 248.448c0 17.216-6.016 31.68-18.112 43.52-12.224 11.904-26.88 17.792-44.032 17.792L93.824 988.288c-17.216 0-31.616-5.952-43.456-17.792-11.84-11.84-17.792-26.368-17.792-43.52l0-248.448c0-17.216 5.952-31.616 17.792-43.52s26.24-17.856 43.456-17.856L340.736 617.152zM835.584 617.152c17.088 0 31.616 6.016 43.456 17.856s17.664 26.304 17.664 43.52l0 248.448c0 17.216-5.888 31.68-17.664 43.52-11.84 11.904-26.368 17.792-43.456 17.792L588.608 988.288c-17.152 0-31.744-5.952-43.968-17.792-12.16-11.84-18.304-26.368-18.304-43.52l0-248.448c0-17.216 6.144-31.616 18.304-43.52S571.52 617.152 588.608 617.152L835.584 617.152zM972.736 231.168c13.248 13.184 19.84 28.672 19.84 46.592 0 17.728-6.592 32.96-19.84 45.504L789.12 507.264c-13.248 13.248-28.48 19.904-45.952 19.904S710.4 520.512 697.28 507.264L513.472 323.2C501.056 310.656 494.72 295.488 494.72 277.696c0-17.856 6.336-33.408 18.752-46.592l183.744-184.128C710.4 34.56 725.76 28.288 743.168 28.288s32.704 6.272 45.952 18.752L972.736 231.168z" fill="#1296db" p-id="8426"></path></svg>