<?xml version="1.0" standalone="no"?><!DOCTYPE svg PUBLIC "-//W3C//DTD SVG 1.1//EN" "http://www.w3.org/Graphics/SVG/1.1/DTD/svg11.dtd"><svg t="1514446246271" class="icon" style="" viewBox="0 0 1024 1024" version="1.1" xmlns="http://www.w3.org/2000/svg" p-id="2244" xmlns:xlink="http://www.w3.org/1999/xlink" width="32" height="32"><defs><style type="text/css"></style></defs><path d="M962.169281 870.493837 746.481917 654.80852c49.937342-61.257156 79.94068-139.357931 79.94068-224.524636 0-196.394972-159.186536-355.598904-355.598904-355.598904-196.377576 0-355.598904 159.203932-355.598904 355.598904 0 196.36018 159.221328 355.6163 355.598904 355.6163 85.600587 0 164.116825-30.281677 225.479381-80.704067l215.547171 215.581963L962.169281 870.493837zM470.824717 714.74561c-157.136853 0-284.479123-127.341247-284.479123-284.461727s127.34227-284.496519 284.479123-284.496519c157.102061 0 284.479123 127.377062 284.479123 284.496519S627.926778 714.74561 470.824717 714.74561z" p-id="2245" fill="#707070"></path></svg>